<?xml version="1.0" encoding="utf-8"?>
<!-- Generator: Adobe Illustrator 16.0.0, SVG Export Plug-In . SVG Version: 6.00 Build 0)  -->
<!DOCTYPE svg PUBLIC "-//W3C//DTD SVG 1.1//EN" "http://www.w3.org/Graphics/SVG/1.1/DTD/svg11.dtd">
<svg version="1.1" xmlns="http://www.w3.org/2000/svg" xmlns:xlink="http://www.w3.org/1999/xlink" x="0px" y="0px" width="512px"
	 height="512px" viewBox="0 0 512 512" enable-background="new 0 0 512 512" xml:space="preserve">
<g id="Layer_1">
	<g>
		<g>
			<path fill="#F96A6E" d="M165,418c0,11-9,20-20,20H94c-11,0-20-9-20-20v-51c0-11,9-20,20-20h51c11,0,20,9,20,20V418z"/>
		</g>
		<g>
			<path fill="#FFD664" d="M165,276c0-11,9-20,20-20h51c11,0,20,9,20,20v142c0,11-9,20-20,20h-51c-11,0-20-9-20-20V276z"/>
		</g>
		<g>
			<path fill="#3E70BA" d="M347,94c0-11,9-20,20-20h51c11,0,20,9,20,20v324c0,11-9,20-20,20h-51c-11,0-20-9-20-20V94z"/>
		</g>
		<g>
			<path fill="#4CE5AE" d="M256,185c0-11,9-20,20-20h51c11,0,20,9,20,20v233c0,11-9,20-20,20h-51c-11,0-20-9-20-20V185z"/>
		</g>
		<circle fill="#F96A6E" cx="119.5" cy="302" r="13.579"/>
	</g>
</g>
<g id="Layer_2" display="none">
	<path display="inline" fill="#3E70BA" d="M230.625,74H201c-2.761,0-5,2.239-5,5s2.239,5,5,5h19.929L120.131,184.798
		c-1.953,1.953-1.953,5.119,0,7.071c0.977,0.976,2.256,1.464,3.536,1.464s2.559-0.488,3.536-1.464L228,91.072V111
		c0,2.761,2.239,5,5,5s5-2.239,5-5V81C238,76.875,234.875,74,230.625,74z"/>
</g>
<g id="Layer_3" display="none">
	
		<polyline display="inline" fill="none" stroke="#3E70BA" stroke-width="10" stroke-linecap="round" stroke-linejoin="round" stroke-miterlimit="10" points="
		279,107 199,107 199,187 119,187 119,267 	"/>
	
		<line display="inline" fill="none" stroke="#3E70BA" stroke-width="10" stroke-linecap="round" stroke-linejoin="round" stroke-miterlimit="10" x1="261.616" y1="87.866" x2="280.509" y2="106.759"/>
	
		<line display="inline" fill="none" stroke="#3E70BA" stroke-width="10" stroke-linecap="round" stroke-linejoin="round" stroke-miterlimit="10" x1="261.616" y1="125.759" x2="280.509" y2="106.866"/>
</g>
</svg>
