<?xml version="1.0" encoding="utf-8"?>
<!-- Generator: Adobe Illustrator 16.0.0, SVG Export Plug-In . SVG Version: 6.00 Build 0)  -->
<!DOCTYPE svg PUBLIC "-//W3C//DTD SVG 1.1//EN" "http://www.w3.org/Graphics/SVG/1.1/DTD/svg11.dtd">
<svg version="1.1" xmlns="http://www.w3.org/2000/svg" xmlns:xlink="http://www.w3.org/1999/xlink" x="0px" y="0px" width="512px"
	 height="512px" viewBox="0 0 512 512" enable-background="new 0 0 512 512" xml:space="preserve">
<g id="Layer_2" display="none">
	<path fill="none" stroke="#FFFFFF" stroke-width="14" stroke-linecap="round" stroke-miterlimit="10" d="M95.333,186.333
		c0-27.503,15.778-45.929,43.281-45.929"/>
	<g display="inline">
		<path fill="#E2E2E2" d="M339.104,136.961c0-37.898-30.833-68.622-68.733-68.622c-3.674,0-7.336,0.296-10.853,0.852
			c-14.414-32.892-41.842-52.014-73.295-52.014s-58.867,19.122-73.28,52.014c-3.517-0.556-7.128-0.852-10.802-0.852
			c-37.899,0-68.904,30.724-68.904,68.622c0,34.992,26.764,63.846,59.764,68.07V308.6c0,11.304,5.884,26.4,22.925,26.4h132.501
			c23.589,0,32.573-4.491,32.573-22.748V204.813C313,199.847,339.104,171.361,339.104,136.961z"/>
		<path fill="#A3A3A3" d="M93,296v12.6c0,11.304,5.884,26.4,22.925,26.4h132.501c23.589,0,32.573-4.491,32.573-22.748V296H93z"/>
		<g>
			
				<line fill="none" stroke="#A3A3A3" stroke-width="15" stroke-linecap="round" stroke-miterlimit="10" x1="186.5" y1="232" x2="186.5" y2="309"/>
			
				<line fill="none" stroke="#A3A3A3" stroke-width="15" stroke-linecap="round" stroke-miterlimit="10" x1="141.5" y1="232" x2="141.5" y2="309"/>
			
				<line fill="none" stroke="#A3A3A3" stroke-width="15" stroke-linecap="round" stroke-miterlimit="10" x1="230.5" y1="232" x2="230.5" y2="309"/>
		</g>
	</g>
	<g>
		<path display="inline" fill="none" stroke="#A3A3A3" stroke-width="16" stroke-linecap="round" stroke-miterlimit="10" d="
			M147.988,213.753c0,13.648,11.043,24.691,24.691,24.691"/>
		<path display="inline" fill="none" stroke="#A3A3A3" stroke-width="16" stroke-linecap="round" stroke-miterlimit="10" d="
			M286.012,213.753c0,13.648-11.043,24.691-24.691,24.691"/>
		
			<line display="inline" fill="none" stroke="#A3A3A3" stroke-width="16" stroke-linecap="round" stroke-miterlimit="10" x1="217" y1="244" x2="217" y2="221"/>
	</g>
</g>
<g id="Layer_3" display="none">
	<g display="inline">
		<path fill="#E2E2E2" d="M222.761,139.036c-34.502-49.384-98.405-64.316-142.733-33.348
			c-44.329,30.968-52.295,96.106-17.793,145.491L222.761,139.036z"/>
		
			<rect x="302.157" y="106.163" transform="matrix(-0.8198 0.5727 -0.5727 -0.8198 735.2252 344.9792)" fill="#E2E2E2" width="22.341" height="364.039"/>
		<path fill="#3E70BA" d="M388.476,348.706l63.976,91.577c8.521,12.194,5.541,28.995-6.656,37.516
			c-12.2,8.521-28.993,5.541-37.516-6.658l-63.977-91.574L388.476,348.706z"/>
		<path fill="#D6D6D6" d="M83.926,236.026l-21.692,15.153c-34.501-49.385-26.536-114.523,17.793-145.491
			c1.786-1.247,3.615-2.393,5.462-3.494C61.062,142.203,59.325,193.661,83.926,236.026z"/>
		<path fill="none" stroke="#FFFFFF" stroke-width="15.7707" stroke-linecap="round" stroke-miterlimit="10" d="M94.973,126.508
			c26.271-18.353,66.434-9.89,84.789,16.382"/>
		<path fill="#275C9B" d="M357.232,370.535l78.002,111.654c-10.054,1.843-20.72-2.121-26.955-11.049l-63.977-91.574L357.232,370.535
			z"/>
	</g>
</g>
<g id="Layer_1">
	<g>
		<path fill="#F9962B" d="M376.998,116.855l28.61-21.633c-2.318-9.311,0.38-18.99,7.45-26.062l11.634-11.633
			c10.922-10.922,28.629-10.923,39.553,0c10.921,10.922,10.921,28.631-0.001,39.553l-11.634,11.634
			c-7.557,7.555-18.355,9.876-27.917,6.976l-20.94,27.921L376.998,116.855z"/>
		
			<rect x="206.136" y="76.747" transform="matrix(0.7071 0.7071 -0.7071 0.7071 259.9075 -108.7656)" fill="#FFD664" width="110.223" height="365.223"/>
		
			<rect x="269.326" y="102.92" transform="matrix(0.7071 0.7071 -0.7071 0.7071 286.0787 -119.6082)" fill="#FFC73B" width="36.194" height="365.224"/>
		
			<rect x="309.67" y="144.31" transform="matrix(0.7071 0.7071 -0.7071 0.7071 217.0293 -212.3004)" fill="#F9962B" width="110.226" height="23.032"/>
		
			<rect x="101.438" y="352.541" transform="matrix(0.7071 0.7071 -0.7071 0.7071 303.2812 -4.0681)" fill="#F9962B" width="110.227" height="23.032"/>
		<path fill="#F9962B" d="M146.664,403.027l-28.612,21.632c2.319,9.313-0.378,18.992-7.451,26.064l-11.633,11.631
			c-10.921,10.925-28.631,10.925-39.552,0c-10.922-10.921-10.922-28.629,0-39.551l11.633-11.633
			c7.556-7.558,18.358-9.879,27.917-6.978l20.941-27.921L146.664,403.027z"/>
	</g>
</g>
<g id="Layer_4">
	<g>
		<g>
			
				<ellipse transform="matrix(0.7071 -0.7071 0.7071 0.7071 -71.0946 154.4108)" fill="none" stroke="#474747" stroke-width="16.5932" stroke-miterlimit="10" cx="150.844" cy="163.024" rx="91.143" ry="121.877"/>
			
				<ellipse transform="matrix(0.7071 -0.7071 0.7071 0.7071 -71.0942 154.4102)" fill="none" stroke="#474747" stroke-width="16.5932" stroke-miterlimit="10" cx="150.844" cy="163.024" rx="43.397" ry="121.877"/>
			
				<line fill="none" stroke="#474747" stroke-width="16.2152" stroke-miterlimit="10" x1="65.275" y1="76.691" x2="237.262" y2="248.678"/>
		</g>
		
			<rect x="215.141" y="244.413" transform="matrix(0.7071 -0.7071 0.7071 0.7071 -113.0293 254.4483)" fill="#E2E2E2" width="70.981" height="38.5"/>
		<path fill="#3E70BA" d="M265.147,328.37l120.798,120.798c13.861,13.861,36.332,13.862,50.191,0
			c13.861-13.858,13.861-36.329,0-50.19L315.339,278.179L265.147,328.37z"/>
		<path fill="#3E70BA" d="M239.147,302.37l146.798,146.798c13.861,13.861,36.332,13.862,50.191,0
			c13.861-13.858,13.861-36.329,0-50.19L289.339,252.179L239.147,302.37z"/>
		<path fill="#2B61A0" d="M268.921,272.596l171.454,171.453c9.428-13.816,8.022-32.812-4.238-45.071L289.339,252.179
			L268.921,272.596z"/>
		
			<rect x="246.271" y="234.339" transform="matrix(-0.7071 -0.7071 0.7071 -0.7071 277.3461 612.438)" fill="#B7B7B7" width="38.497" height="28.875"/>
		<circle fill="#FFFFFF" cx="412.176" cy="425.207" r="8.822"/>
	</g>
</g>
</svg>
