<?xml version="1.0" encoding="utf-8"?>
<!-- Generator: Adobe Illustrator 16.0.0, SVG Export Plug-In . SVG Version: 6.00 Build 0)  -->
<!DOCTYPE svg PUBLIC "-//W3C//DTD SVG 1.1//EN" "http://www.w3.org/Graphics/SVG/1.1/DTD/svg11.dtd">
<svg version="1.1" id="Layer_1" xmlns="http://www.w3.org/2000/svg" xmlns:xlink="http://www.w3.org/1999/xlink" x="0px" y="0px"
	 width="556px" height="311px" viewBox="124.5 166.5 556 311" enable-background="new 124.5 166.5 556 311" xml:space="preserve">
<g display="none">
	<g display="inline">
		
			<line fill="none" stroke="#ED4F5B" stroke-width="8" stroke-linecap="round" stroke-miterlimit="10" x1="84" y1="388" x2="225" y2="388"/>
	</g>
	<g display="inline">
		
			<line fill="none" stroke="#ED4F5B" stroke-width="8" stroke-linecap="round" stroke-miterlimit="10" x1="84" y1="355" x2="225" y2="355"/>
	</g>
	<g display="inline">
		
			<line fill="none" stroke="#ED4F5B" stroke-width="8" stroke-linecap="round" stroke-miterlimit="10" x1="84" y1="322" x2="225" y2="322"/>
	</g>
</g>
<path fill="#9DE5F9" d="M565.229,214h-274l-15,12.346l-15-12.346h-79c-26.51,0-49.23,20.687-49.23,47.197v162
	c0,26.51,22.72,48.803,49.23,48.803h79l15-12.305l15,12.305h274C591.739,472,612,449.707,612,423.197v-162
	C612,234.687,591.739,214,565.229,214z M276.23,443.197c-4.786,0-8.667-3.881-8.667-8.668c0-4.785,3.88-8.666,8.667-8.666
	s8.667,3.881,8.667,8.666C284.897,439.316,281.017,443.197,276.23,443.197z M276.23,406.197c-4.786,0-8.667-3.881-8.667-8.667
	c0-4.786,3.88-8.667,8.667-8.667s8.667,3.88,8.667,8.667S281.017,406.197,276.23,406.197z M276.23,369.197
	c-4.786,0-8.667-3.88-8.667-8.667c0-4.786,3.88-8.667,8.667-8.667s8.667,3.88,8.667,8.667
	C284.897,365.316,281.017,369.197,276.23,369.197z M276.23,332.197c-4.786,0-8.667-3.88-8.667-8.667c0-4.786,3.88-8.667,8.667-8.667
	s8.667,3.88,8.667,8.667C284.897,328.316,281.017,332.197,276.23,332.197z M276.23,295.197c-4.786,0-8.667-3.88-8.667-8.667
	c0-4.786,3.88-8.667,8.667-8.667s8.667,3.88,8.667,8.667C284.897,291.316,281.017,295.197,276.23,295.197z M276.23,258.197
	c-4.786,0-8.667-3.88-8.667-8.667c0-4.786,3.88-8.667,8.667-8.667s8.667,3.88,8.667,8.667
	C284.897,254.316,281.017,258.197,276.23,258.197z"/>
<path fill="#ED4F5B" d="M626,178H352l-15,12.346L322,178h-79c-26.51,0-49,20.49-49,47v162c0,26.51,22.49,49,49,49h79l15-12.304
	L352,436h274c26.51,0,47-22.49,47-49V225C673,198.49,652.51,178,626,178z M337,407c-4.786,0-8.667-3.881-8.667-8.667
	s3.88-8.667,8.667-8.667s8.667,3.88,8.667,8.667S341.787,407,337,407z M337,370c-4.786,0-8.667-3.88-8.667-8.667
	c0-4.786,3.88-8.667,8.667-8.667s8.667,3.88,8.667,8.667S341.787,370,337,370z M337,333c-4.786,0-8.667-3.88-8.667-8.667
	c0-4.786,3.88-8.667,8.667-8.667s8.667,3.88,8.667,8.667S341.787,333,337,333z M337,296c-4.786,0-8.667-3.88-8.667-8.667
	c0-4.786,3.88-8.667,8.667-8.667s8.667,3.88,8.667,8.667S341.787,296,337,296z M337,259c-4.786,0-8.667-3.88-8.667-8.667
	c0-4.786,3.88-8.667,8.667-8.667s8.667,3.88,8.667,8.667S341.787,259,337,259z M337,222c-4.786,0-8.667-3.88-8.667-8.667
	c0-4.786,3.88-8.667,8.667-8.667s8.667,3.88,8.667,8.667S341.787,222,337,222z"/>
<g display="none">
	<path display="inline" fill="#FFF9E1" d="M643,374c0,18.778-15.223,34-34,34H417c-18.778,0-34-15.222-34-34V240
		c0-18.778,15.222-34,34-34h192c18.777,0,34,15.222,34,34V374z"/>
</g>
<circle display="none" fill="#FFFFFF" cx="503" cy="307" r="108"/>
<g display="none">
	<path display="inline" fill="#FFFFFF" d="M635,351.616c0,9.561-7.822,17.384-17.384,17.384H396.384
		c-9.561,0-17.384-7.823-17.384-17.384v-88.232c0-9.561,7.823-17.384,17.384-17.384h221.232c9.562,0,17.384,7.823,17.384,17.384
		V351.616L635,351.616z"/>
</g>
<path fill="#F96A6E" d="M673,272.613V225c0-26.51-20.49-47-47-47H352l-15,12.346L322,178h-79c-26.51,0-49,20.49-49,47v140.28
	L673,272.613z M337,204.667c4.787,0,8.667,3.88,8.667,8.667s-3.88,8.667-8.667,8.667c-4.786,0-8.667-3.88-8.667-8.667
	S332.214,204.667,337,204.667z M337,241.667c4.787,0,8.667,3.88,8.667,8.667s-3.88,8.667-8.667,8.667
	c-4.786,0-8.667-3.88-8.667-8.667S332.214,241.667,337,241.667z M337,278.667c4.787,0,8.667,3.88,8.667,8.667
	s-3.88,8.667-8.667,8.667c-4.786,0-8.667-3.88-8.667-8.667S332.214,278.667,337,278.667z M337,315.667
	c4.787,0,8.667,3.88,8.667,8.667s-3.88,8.667-8.667,8.667c-4.786,0-8.667-3.88-8.667-8.667S332.214,315.667,337,315.667z"/>
<text transform="matrix(1 0 0 1 387.5 386.1006)" fill="#FFFFFF" font-family="'Raleway'" font-size="77.8327" letter-spacing="-2">coupon</text>
<path fill="none" stroke="#FFFFFF" stroke-width="7" stroke-linecap="round" stroke-linejoin="round" stroke-miterlimit="10" d="
	M535,222.623L535,222.623C535,247.131,515.132,267,490.623,267C515.132,267,535,286.869,535,311.377l0,0l0,0
	C535,286.869,554.868,267,579.377,267C554.868,267,535,247.131,535,222.623L535,222.623z"/>
<path fill="none" stroke="#FFFFFF" stroke-width="7" stroke-linecap="round" stroke-linejoin="round" stroke-miterlimit="10" d="
	M596,271.186L596,271.186C596,287.651,582.652,301,566.188,301C582.652,301,596,314.349,596,330.814l0,0l0,0
	C596,314.349,609.348,301,625.813,301C609.348,301,596,287.651,596,271.186L596,271.186z"/>
</svg>
