<?xml version="1.0" encoding="utf-8"?>
<!-- Generator: Adobe Illustrator 16.0.0, SVG Export Plug-In . SVG Version: 6.00 Build 0)  -->
<!DOCTYPE svg PUBLIC "-//W3C//DTD SVG 1.1//EN" "http://www.w3.org/Graphics/SVG/1.1/DTD/svg11.dtd">
<svg version="1.1" xmlns="http://www.w3.org/2000/svg" xmlns:xlink="http://www.w3.org/1999/xlink" x="0px" y="0px" width="512px"
	 height="512px" viewBox="0 0 512 512" enable-background="new 0 0 512 512" xml:space="preserve">
<g id="Layer_2">
	<g>
		<path fill="#FFD664" d="M271.457,342.13c-28.504-14.911-59.9-31.26-59.9-31.26c-7.568-2.438-17.215-3.658-27.812-3.658
			c-9.975,0-19.951,1.22-27.519,3.658c0,0-31.251,16.349-59.755,31.26c-28.505,14.911-27.52,21.995-27.52,34.37
			S82.196,399,98.385,399h85.359h85.944c16.188,0,29.36-10.125,29.36-22.5S299.962,357.041,271.457,342.13z"/>
		<path fill="#FFD664" d="M271.457,133.081c-28.504,14.911-59.9,31.26-59.9,31.26c-7.568,2.438-17.215,3.658-27.812,3.658
			c-9.975,0-19.951-1.22-27.519-3.658c0,0-31.251-16.349-59.755-31.26c-28.505-14.911-27.52-22.101-27.52-34.476
			S82.196,76,98.385,76h85.359h85.944c16.188,0,29.36,10.23,29.36,22.605S299.962,118.17,271.457,133.081z"/>
		<rect x="99" y="134" fill="#3E70BA" width="169" height="207"/>
		<path fill="none" stroke="#749ED1" stroke-width="18" stroke-linecap="round" stroke-linejoin="round" stroke-miterlimit="10" d="
			M317,141v22c0,21.539-17.461,39-39,39h-53"/>
		
			<line fill="none" stroke="#749ED1" stroke-width="18" stroke-linejoin="round" stroke-miterlimit="10" x1="99" y1="167" x2="268" y2="166.875"/>
		
			<line fill="none" stroke="#749ED1" stroke-width="18" stroke-linejoin="round" stroke-miterlimit="10" x1="99" y1="202" x2="268" y2="201.875"/>
		
			<line fill="none" stroke="#749ED1" stroke-width="18" stroke-linejoin="round" stroke-miterlimit="10" x1="99" y1="237" x2="268" y2="236.875"/>
		
			<line fill="none" stroke="#749ED1" stroke-width="18" stroke-linejoin="round" stroke-miterlimit="10" x1="99" y1="272" x2="268" y2="271.875"/>
		
			<line fill="none" stroke="#749ED1" stroke-width="18" stroke-linejoin="round" stroke-miterlimit="10" x1="99" y1="307" x2="268" y2="306.875"/>
		<path fill="none" stroke="#749ED1" stroke-width="18" stroke-linecap="round" stroke-linejoin="round" stroke-miterlimit="10" d="
			M317,167v-31c0-21.539,17.461-39,39-39h11"/>
	</g>
</g>
<g id="Layer_1">
	<g>
		<g>
			<g>
				<path fill="#E2E2E2" d="M394.18,342.041l-42.645,29.629L234.079,204.574c-35.109-54.338,6.962-82.952,6.962-82.952
					L394.18,342.041z"/>
				<path fill="#B2B2B2" d="M393.066,340.439L241.041,121.622c0,0-7.19,4.896-13.146,14.476l150.311,214.667L393.066,340.439z"/>
			</g>
			<polygon fill="#CE4952" points="325.043,333.979 351.535,371.67 394.18,342.041 367.938,304.271 			"/>
			<path fill="#CE4952" d="M332.368,407.319c6.223,37.836,41.938,63.463,79.774,57.241c37.837-6.224,63.465-41.938,57.241-79.776
				c-6.223-37.834-41.939-63.464-79.775-57.24C351.772,333.767,326.146,369.483,332.368,407.319z M356.617,403.331
				c-4.02-24.443,12.537-47.517,36.979-51.538c24.442-4.02,47.517,12.536,51.538,36.979c4.02,24.444-12.538,47.518-36.98,51.538
				C383.711,444.33,360.638,427.774,356.617,403.331z"/>
		</g>
		<g>
			<g>
				<path fill="#E2E2E2" d="M258.051,342.041l42.646,29.629l117.456-167.096c35.109-54.338-6.963-82.952-6.963-82.952
					L258.051,342.041z"/>
				<path fill="#B2B2B2" d="M259.164,340.439l152.025-218.817c0,0,7.191,4.896,13.147,14.476L274.025,350.765L259.164,340.439z"/>
			</g>
			<polygon fill="#F96A6E" points="327.188,333.979 300.696,371.67 258.051,342.041 284.293,304.271 			"/>
			<path fill="#F96A6E" d="M262.623,327.544c-37.836-6.224-73.553,19.406-79.775,57.24c-6.223,37.838,19.405,73.553,57.241,79.776
				c37.835,6.222,73.552-19.405,79.775-57.241S300.459,333.767,262.623,327.544z M244.076,440.311
				c-24.442-4.021-40.999-27.094-36.979-51.538c4.02-24.443,27.094-40.999,51.538-36.979c24.442,4.021,40.998,27.095,36.979,51.538
				S268.52,444.33,244.076,440.311z"/>
		</g>
		<g>
			<circle fill="#F96A6E" cx="327.188" cy="288.15" r="12.316"/>
		</g>
	</g>
</g>
</svg>
