<?xml version="1.0" encoding="utf-8"?>
<!-- Generator: Adobe Illustrator 16.0.0, SVG Export Plug-In . SVG Version: 6.00 Build 0)  -->
<!DOCTYPE svg PUBLIC "-//W3C//DTD SVG 1.1//EN" "http://www.w3.org/Graphics/SVG/1.1/DTD/svg11.dtd">
<svg version="1.1" xmlns="http://www.w3.org/2000/svg" xmlns:xlink="http://www.w3.org/1999/xlink" x="0px" y="0px" width="512px"
	 height="512px" viewBox="0 0 512 512" enable-background="new 0 0 512 512" xml:space="preserve">
<g id="Layer_1">
</g>
<g id="Layer_2">
</g>
<g id="Layer_3">
	<g>
		<g>
			<path fill="#3E70BA" d="M170.706,445.691c0,3.967-3.216,8.309-7.182,8.309h-41.3c-3.967,0-7.183-4.342-7.183-8.309
				l59.256-380.093c0-3.967,3.216-6.598,7.183-6.598h41.3c3.967,0,7.183,2.631,7.183,6.598L170.706,445.691z"/>
			<path fill="#3E70BA" d="M344.885,445.691c0,3.967,3.216,8.309,7.183,8.309h41.3c3.967,0,7.183-4.342,7.183-8.309L341.293,65.598
				c0-3.967-3.216-6.598-7.182-6.598h-41.301c-3.966,0-7.183,2.631-7.183,6.598L344.885,445.691z"/>
		</g>
		<path fill="#3E70BA" d="M462,322.817c0,3.967-3.216,7.183-7.183,7.183H56.183c-3.967,0-7.183-3.216-7.183-7.183v-12.635
			c0-3.967,3.216-7.183,7.183-7.183h398.635c3.967,0,7.183,3.216,7.183,7.183V322.817z"/>
		<polygon fill="#265184" points="188.775,330 133.111,330 130.15,349 185.814,349 		"/>
		<polygon fill="#265184" points="382.48,330 326.815,330 329.776,349 385.441,349 		"/>
	</g>
	<path fill="#E2E2E2" d="M418,273c0,16.568-13.432,30-30,30H123c-16.568,0-30-13.432-30-30V130c0-16.568,13.432-30,30-30h265
		c16.568,0,30,13.432,30,30V273z"/>
	<path fill="#36B28E" d="M186.06,142.5L93,258.673V272.5c0,16.5,14,30.5,30.5,30.5h33.986l78.199-98.29L186.06,142.5z"/>
	<polygon fill="#39AA84" points="157.486,303 314.134,303 235.81,204.96 	"/>
	<circle fill="#F96A6E" cx="362.08" cy="163.898" r="20.74"/>
	<polygon fill="#4CE5AE" points="186.486,303 284.751,180 383.016,303 	"/>
	<path fill="#FFFFFF" d="M318.34,151.214c0-6.583-5.337-11.919-11.92-11.919c-1.545,0-3.016,0.303-4.37,0.838
		c0.012-0.28,0.039-0.556,0.039-0.838c0-10.38-8.415-18.794-18.794-18.794c-7.738,0-14.378,4.678-17.26,11.358
		c-2.866-2.102-6.392-3.358-10.219-3.358c-9.563,0-17.316,7.753-17.316,17.317s7.753,17.317,17.316,17.317
		c0.12,0,0.237,0.234,0.356,0.232L255.816,164H306.5l-0.295-0.627c0.072,0.001,0.143-0.114,0.215-0.114
		C313.003,163.259,318.34,157.797,318.34,151.214z"/>
	<path fill="#FFFFFF" d="M370.346,186.214c0-4.439-3.6-8.039-8.039-8.039c-1.042,0-2.034,0.205-2.947,0.565
		c0.008-0.188,0.026-0.375,0.026-0.565c0-7-5.676-12.675-12.675-12.675c-5.219,0-9.697,3.155-11.641,7.66
		c-1.934-1.417-4.311-2.265-6.892-2.265c-6.45,0-11.679,5.229-11.679,11.679s5.229,11.679,11.679,11.679
		c0.081,0,0.16,0.24,0.24,0.238l-0.24,0.509h34.182l-0.199-0.504c0.049,0.001,0.097-0.118,0.146-0.118
		C366.746,194.378,370.346,190.654,370.346,186.214z"/>
	<path fill="#86EFBF" d="M284.751,179.5l-28.541,35.726c6.372,26.545,29.937,46.255,58.048,46.255
		c10.778,0,20.881-2.911,29.612-7.98L284.751,179.5z"/>
	
		<rect x="365.5" y="132.5" transform="matrix(0.7071 0.7071 -0.7071 0.7071 259.3631 -201.1574)" fill="#265184" width="14" height="160.001"/>
	<path fill="#FFFFFF" d="M334.258,263.839c-0.284-11.728-11.554-17.393-22.118-14.588c-14.561,3.866-15.497,20.392-33.438,12.329
		c1.561,9.08,5.5,18.846,13.66,23.955c11.656,7.297,25.043,3.857,34.8-5.168C331.966,275.922,334.397,269.65,334.258,263.839z"/>
	<path fill="#F96A6E" d="M278.701,261.58c1.561,9.08,5.5,18.846,13.66,23.955c2.648,1.658,5.387,2.756,8.15,3.366
		c2.82-3.118,4.47-6.88,4.47-10.931c0-6.634-4.423-12.49-11.175-16.01C290.154,264.115,285.737,264.742,278.701,261.58z"/>
</g>
<g id="Layer_4">
</g>
</svg>
