<?xml version="1.0" encoding="utf-8"?>
<!-- Generator: Adobe Illustrator 16.0.0, SVG Export Plug-In . SVG Version: 6.00 Build 0)  -->
<!DOCTYPE svg PUBLIC "-//W3C//DTD SVG 1.1//EN" "http://www.w3.org/Graphics/SVG/1.1/DTD/svg11.dtd">
<svg version="1.1" id="Layer_1" xmlns="http://www.w3.org/2000/svg" xmlns:xlink="http://www.w3.org/1999/xlink" x="0px" y="0px"
	 width="512px" height="512px" viewBox="0 0 512 512" enable-background="new 0 0 512 512" xml:space="preserve">
<g>
	<path fill="#749ED1" d="M153,194c0,6.627-5.373,12-12,12H98c-6.627,0-12-5.373-12-12v-43c0-6.627,5.373-12,12-12h43
		c6.627,0,12,5.373,12,12V194z"/>
	<path fill="#749ED1" d="M457,403.645C457,416.353,446.755,427,433.5,427h-355C65.245,427,54,416.353,54,403.645V219.579
		C54,206.872,65.245,197,78.5,197h355c13.255,0,23.5,9.872,23.5,22.579V403.645z"/>
	<path fill="#FFD664" d="M457,378c0,13.255-10.745,24-24,24H78c-13.255,0-24-10.745-24-24V186c0-13.255,10.745-24,24-24h355
		c13.255,0,24,10.745,24,24V378z"/>
	<circle fill="#F9962B" cx="256" cy="290.5" r="101.083"/>
	<rect x="375" y="181" fill="#E2E2E2" width="33" height="34"/>
	<rect x="375" y="198" fill="#666666" width="33" height="17"/>
	<g>
		<circle fill="#3E70BA" cx="256" cy="273.5" r="101.083"/>
		<g>
			<path d="M256,327.229c-29.626,0-53.729-24.103-53.729-53.729c0-29.626,24.103-53.729,53.729-53.729
				c29.627,0,53.729,24.103,53.729,53.729C309.729,303.127,285.627,327.229,256,327.229z"/>
			<path fill="#FFFFFF" d="M256,228.271c24.939,0,45.229,20.29,45.229,45.229s-20.29,45.229-45.229,45.229
				s-45.229-20.29-45.229-45.229S231.061,228.271,256,228.271 M256,211.271c-34.368,0-62.229,27.861-62.229,62.229
				s27.861,62.229,62.229,62.229s62.229-27.861,62.229-62.229S290.368,211.271,256,211.271L256,211.271z"/>
		</g>
		<circle fill="#3E70BA" cx="256" cy="273.5" r="11.911"/>
		<circle fill="#FFFFFF" cx="229.058" cy="246.997" r="15.031"/>
	</g>
	<path display="none" fill="#749ED1" d="M318,120.167c-0.994,6.961-5.838,12.833-12.425,12.833h-99.4
		c-6.587,0-12.175-5.873-12.175-12.5v-19c0-6.627,5.587-11.5,12.175-11.5h98.406c14.697,0,13.179,9.646,13.419,11.167V120.167z"/>
	<polygon fill="#FFD664" points="358.766,163 318.128,109 193.872,109 153.229,163 	"/>
</g>
</svg>
