<?xml version="1.0" encoding="utf-8"?>
<!-- Generator: Adobe Illustrator 16.0.0, SVG Export Plug-In . SVG Version: 6.00 Build 0)  -->
<!DOCTYPE svg PUBLIC "-//W3C//DTD SVG 1.1//EN" "http://www.w3.org/Graphics/SVG/1.1/DTD/svg11.dtd">
<svg version="1.1" xmlns="http://www.w3.org/2000/svg" xmlns:xlink="http://www.w3.org/1999/xlink" x="0px" y="0px" width="512px"
	 height="512px" viewBox="0 0 512 512" enable-background="new 0 0 512 512" xml:space="preserve">
<g id="Layer_2">
</g>
<g id="Layer_1">
	<g>
		<g>
			<path fill="#FFD664" d="M256.188,180.991c0,0-154.208,6.884-154.208-52.321c0-59.205,22.03-56.451,22.03-56.451
				s27.537-13.769,111.525,72.974L256.188,180.991z"/>
			<path fill="#FFD664" d="M256.188,180.991c0,0,154.208,6.884,154.208-52.321c0-59.205-22.029-56.451-22.029-56.451
				s-27.538-13.769-111.526,72.974L256.188,180.991z"/>
		</g>
		<path fill="#F96A6E" d="M91,274.617V254h20.618h289.141H421v20.617v170.73c0,11.358-8.883,20.652-20.241,20.652H111.618
			C100.259,466,91,456.706,91,445.348V274.617z"/>
		<rect x="91" y="255" fill="#EA5762" width="330" height="17"/>
		<g>
			<path fill="#F96A6E" d="M455,232.013c0,12.143-9.844,21.987-21.986,21.987H78.986C66.844,254,57,244.156,57,232.013v-50.026
				C57,169.844,66.844,160,78.986,160h354.027c12.143,0,21.986,9.844,21.986,21.987V232.013z"/>
		</g>
		<rect x="219" y="255" fill="#FFD664" width="74" height="211"/>
		<rect x="219" y="160" fill="#FFD664" width="74" height="95"/>
		<rect x="219" y="255" fill="#F9962B" width="74" height="17"/>
		<rect x="219" y="129" fill="#F9962B" width="74" height="31"/>
	</g>
</g>
</svg>
