<?xml version="1.0" encoding="utf-8"?>
<!-- Generator: Adobe Illustrator 16.0.0, SVG Export Plug-In . SVG Version: 6.00 Build 0)  -->
<!DOCTYPE svg PUBLIC "-//W3C//DTD SVG 1.1//EN" "http://www.w3.org/Graphics/SVG/1.1/DTD/svg11.dtd">
<svg version="1.1" id="Layer_1" xmlns="http://www.w3.org/2000/svg" xmlns:xlink="http://www.w3.org/1999/xlink" x="0px" y="0px"
	 width="512px" height="512px" viewBox="0 0 512 512" enable-background="new 0 0 512 512" xml:space="preserve">
<path fill="#749ED1" d="M471,321.356C471,339.385,456.385,354,438.356,354H72.644C54.615,354,40,339.385,40,321.356V117.644
	C40,99.615,54.615,85,72.644,85h365.713C456.385,85,471,99.615,471,117.644V321.356z"/>
<path fill="#A3A3A3" d="M40,289v32.356C40,339.385,54.615,354,72.644,354h365.713C456.385,354,471,339.385,471,321.356V289H40z"/>
<g>
	<rect x="218" y="354" fill="#A3A3A3" width="75" height="59"/>
	<rect x="218" y="354" fill="#707070" width="75" height="10"/>
</g>
<path fill="#707070" d="M354,412.53c0,11.305-9.165,20.47-20.47,20.47H177.47c-11.305,0-20.47-9.165-20.47-20.47v-0.061
	c0-11.305,9.165-20.47,20.47-20.47H333.53c11.305,0,20.47,9.165,20.47,20.47V412.53z"/>
<rect x="415" y="309" fill="#707070" width="19" height="20"/>
<path fill="#FFFFFF" d="M353.13,235.572l-31.392-31.63l24.204-11.744c1.919-1.919,1.402-4.248-1.149-5.174l-90.424-32.839
	c-2.552-0.926-4.98,1.221-4.054,3.772l32.914,90.63c0.927,2.552,3.255,3.067,5.175,1.149l13.127-27.054l32.196,32.441
	c1.159,1.169,3.058,1.169,4.217,0l15.186-15.301C354.29,238.653,354.29,236.741,353.13,235.572z M307.201,210.996l0.578-0.28
	l-0.865,0.871L307.201,210.996z"/>
</svg>
