<?xml version="1.0" encoding="utf-8"?>
<!-- Generator: Adobe Illustrator 16.0.0, SVG Export Plug-In . SVG Version: 6.00 Build 0)  -->
<!DOCTYPE svg PUBLIC "-//W3C//DTD SVG 1.1//EN" "http://www.w3.org/Graphics/SVG/1.1/DTD/svg11.dtd">
<svg version="1.1" xmlns="http://www.w3.org/2000/svg" xmlns:xlink="http://www.w3.org/1999/xlink" x="0px" y="0px" width="512px"
	 height="512px" viewBox="0 0 512 512" enable-background="new 0 0 512 512" xml:space="preserve">
<g id="Layer_2">
</g>
<g id="Layer_1">
	<g>
		<path fill="#E2E2E2" d="M215.324,400.767c2.247-2.121,4.532-3.979,6.905-5.641c0.252-3.101,0.569-6.197,0.742-9.305
			c0.046-1.813,0.073-3.627,0.089-5.442l-0.139,0.071l-12.102-15.83l-19.33,4.833l-8.251-18.137l-19.921,0.403l-4.018-19.516
			l-5.959-1.228c-2.756,4.662-6.24,9.035-9.897,13.021c-0.16,0.212-0.317,0.427-0.477,0.637c-2.422,3.184-4.914,6.304-7.46,9.37
			l1.651,0.341l0.545,2.647l4.388,21.313l21.755-0.439l2.715-0.055l1.125,2.472l9.019,19.824l21.129-5.283l2.651-0.663l1.661,2.172
			l8.525,11.151C211.736,405.007,213.269,402.708,215.324,400.767z"/>
		<path fill="#E2E2E2" d="M362.244,330.24l-9.543,1.965l-4.018,19.516l-19.922-0.403l-8.252,18.138l-19.326-4.835l-5.279,6.905
			c2.248,11,5.027,21.878,7.893,32.735l6.061-7.928l1.658-2.17l2.648,0.663l21.131,5.286l9.021-19.827l1.125-2.473l2.713,0.055
			l21.756,0.441l4.387-21.314l0.379-1.832C369.596,347.434,365.766,338.899,362.244,330.24z"/>
		<polygon fill="#265184" points="212.115,136.638 86.435,436.024 125.682,420.74 239.425,149.79 284.364,168.655 171.147,438.353 
			188.936,480.544 315.146,179.889 		"/>
		<polygon fill="#265184" points="299.886,136.638 425.565,436.024 386.318,420.74 272.575,149.79 227.636,168.655 340.854,438.353 
			323.064,480.544 196.854,179.889 		"/>
		<g>
			<polygon fill="#17426D" points="371.914,308.219 371.813,308.266 372.216,328.188 352.699,332.205 351.531,337.875 
				368.493,378.279 369.909,378.309 374.296,356.994 374.842,354.348 377.488,353.802 389.971,351.233 			"/>
			<polygon fill="#17426D" points="310.925,367.057 301.182,364.62 289.079,380.45 278.862,375.248 294.532,412.574 296.625,413.64 
				309.855,396.333 311.515,394.163 314.163,394.826 323.569,397.18 			"/>
		</g>
		<g>
			<polygon fill="#17426D" points="222.92,380.45 210.819,364.62 201.077,367.056 188.434,397.174 197.832,394.824 200.483,394.161 
				202.144,396.333 215.374,413.64 217.468,412.572 233.137,375.248 			"/>
			<polygon fill="#17426D" points="159.298,332.204 139.782,328.185 140.185,308.264 140.086,308.22 122.031,351.23 134.507,353.8 
				137.156,354.346 137.702,356.993 142.09,378.306 143.508,378.276 160.467,337.878 			"/>
		</g>
		<g>
			<g>
				<path fill="#FFD664" d="M256,65.462l15.322,12.736l17.758-9.04l12.102,15.83l19.329-4.833l8.251,18.137l19.921-0.402
					l4.019,19.516l19.516,4.019l-0.402,19.92l18.137,8.251l-4.834,19.329l15.829,12.1l-9.04,17.758l12.735,15.323l-12.735,15.322
					l9.04,17.757l-15.829,12.102l4.833,19.329l-18.137,8.252l0.402,19.921l-19.517,4.018l-4.018,19.517l-19.921-0.403l-8.251,18.137
					l-19.33-4.834l-12.1,15.829l-17.757-9.04L256,362.747l-15.322-12.735l-17.758,9.04l-12.101-15.829l-19.33,4.833l-8.251-18.137
					l-19.921,0.402l-4.019-19.516l-19.516-4.019l0.402-19.921l-18.137-8.25l4.834-19.33l-15.83-12.1l9.04-17.758l-12.736-15.323
					l12.736-15.323l-9.04-17.757l15.83-12.102l-4.833-19.33l18.137-8.251l-0.402-19.921l19.516-4.018l4.019-19.516l19.921,0.403
					l8.251-18.137l19.33,4.833l12.1-15.83l17.757,9.04L256,65.462 M256,31.456L239.284,45.35l-2.084,1.732l-2.416-1.23
					l-19.414-9.883l-13.229,17.307l-1.658,2.169l-2.649-0.663l-21.13-5.284l-9.019,19.825l-1.125,2.471l-2.714-0.055l-21.755-0.44
					l-4.389,21.313l-0.545,2.648l-2.648,0.545l-21.312,4.388l0.439,21.754l0.055,2.716l-2.472,1.125l-19.825,9.019l5.283,21.129
					l0.663,2.65l-2.171,1.66l-17.306,13.229l9.882,19.412l1.23,2.416l-1.732,2.083L73.35,214.106l13.895,16.717l1.732,2.083
					l-1.23,2.416l-9.883,19.414l17.307,13.229l2.169,1.658l-0.663,2.649l-5.284,21.131l19.827,9.02l2.471,1.123l-0.055,2.714
					l-0.439,21.755l21.312,4.389l2.649,0.545l0.545,2.649l4.389,21.312l21.754-0.439l2.715-0.056l1.125,2.473l9.019,19.824
					l21.129-5.283l2.651-0.663l1.66,2.171l13.229,17.306l19.412-9.882l2.417-1.23l2.083,1.731L256,396.753l16.716-13.894
					l2.084-1.731l2.415,1.229l19.413,9.884l13.229-17.308l1.658-2.169l2.649,0.663l21.13,5.284l9.02-19.825l1.124-2.472l2.714,0.056
					l21.757,0.439l4.388-21.313l0.545-2.647l2.647-0.545l21.313-4.388l-0.438-21.756l-0.056-2.715l2.474-1.125l19.823-9.02
					l-5.283-21.129l-0.662-2.65l2.171-1.66l17.305-13.23l-9.883-19.411l-1.229-2.416l1.731-2.083l13.894-16.717l-13.894-16.716
					l-1.731-2.083l1.229-2.416l9.883-19.413l-17.307-13.229l-2.168-1.658l0.662-2.649l5.284-21.13l-19.825-9.02l-2.473-1.125
					l0.056-2.714l0.438-21.754l-21.311-4.389l-2.649-0.545l-0.545-2.649l-4.389-21.312l-21.754,0.439l-2.715,0.055l-1.125-2.472
					l-9.019-19.824l-21.13,5.282l-2.65,0.663l-1.66-2.172L296.627,35.97l-19.411,9.882l-2.416,1.23l-2.083-1.731L256,31.456
					L256,31.456z"/>
			</g>
			<g>
				<path fill="#F9962B" d="M256,95.169c65.688,0,118.938,53.25,118.938,118.937S321.688,333.043,256,333.043
					c-65.687,0-118.938-53.25-118.938-118.937S190.313,95.169,256,95.169 M256,64.262c-20.215,0-39.842,3.966-58.335,11.788
					c-17.847,7.548-33.869,18.349-47.621,32.1s-24.552,29.773-32.101,47.62c-7.822,18.493-11.788,38.12-11.788,58.335
					s3.966,39.842,11.788,58.335c7.549,17.848,18.349,33.869,32.101,47.62c13.751,13.752,29.773,24.552,47.621,32.101
					c18.493,7.822,38.12,11.788,58.335,11.788c20.216,0,39.843-3.966,58.336-11.788c17.848-7.549,33.869-18.349,47.621-32.101
					c13.751-13.751,24.552-29.772,32.101-47.62c7.822-18.493,11.788-38.12,11.788-58.335s-3.966-39.842-11.788-58.336
					c-7.549-17.847-18.35-33.869-32.101-47.62c-13.752-13.751-29.774-24.551-47.621-32.1C295.843,68.228,276.215,64.262,256,64.262
					L256,64.262z"/>
			</g>
			<g>
				<circle fill="#F47F16" cx="257.981" cy="221.011" r="121.891"/>
			</g>
			<g>
				<circle fill="#FFD664" cx="256.001" cy="214.106" r="118.832"/>
			</g>
			<polygon fill="#F9962B" points="266.699,136.167 292.095,187.625 348.88,195.875 307.789,235.928 317.49,292.485 
				266.699,265.784 215.908,292.485 225.608,235.928 184.518,195.875 241.304,187.625 			"/>
			<polygon fill="#FFFFFF" points="256,123.366 282.852,177.773 342.893,186.497 299.446,228.846 309.704,288.646 256,260.412 
				202.297,288.646 212.554,228.846 169.108,186.496 229.148,177.773 			"/>
		</g>
	</g>
</g>
</svg>
