<?xml version="1.0" encoding="utf-8"?>
<!-- Generator: Adobe Illustrator 16.0.0, SVG Export Plug-In . SVG Version: 6.00 Build 0)  -->
<!DOCTYPE svg PUBLIC "-//W3C//DTD SVG 1.1//EN" "http://www.w3.org/Graphics/SVG/1.1/DTD/svg11.dtd">
<svg version="1.1" xmlns="http://www.w3.org/2000/svg" xmlns:xlink="http://www.w3.org/1999/xlink" x="0px" y="0px" width="512px"
	 height="512px" viewBox="0 0 512 512" enable-background="new 0 0 512 512" xml:space="preserve">
<g id="Layer_2" display="none">
	<rect x="-71" y="-38" display="inline" fill="#333333" width="650" height="589"/>
</g>
<g id="Layer_1">
	<path fill="none" stroke="#17AF71" stroke-width="25" stroke-miterlimit="10" d="M365.685,172.263
		c0,60.659-49.178,109.83-109.83,109.83c-60.658,0-109.833-49.171-109.833-109.83c0-60.658,49.174-109.833,109.833-109.833
		C316.507,62.43,365.685,111.605,365.685,172.263z"/>
	<path fill="none" stroke="#17AF71" stroke-width="25" stroke-miterlimit="10" d="M255.855,474.746
		c51.349,0,99.108-15.257,139.098-41.401c-17.3-60.58-72.965-104.978-139.098-104.978c-66.137,0-121.797,44.397-139.105,104.978
		C156.744,459.489,204.506,474.746,255.855,474.746z"/>
</g>
</svg>
