<?xml version="1.0" encoding="utf-8"?>
<!-- Generator: Adobe Illustrator 16.0.0, SVG Export Plug-In . SVG Version: 6.00 Build 0)  -->
<!DOCTYPE svg PUBLIC "-//W3C//DTD SVG 1.1//EN" "http://www.w3.org/Graphics/SVG/1.1/DTD/svg11.dtd">
<svg version="1.1" xmlns="http://www.w3.org/2000/svg" xmlns:xlink="http://www.w3.org/1999/xlink" x="0px" y="0px" width="512px"
	 height="512px" viewBox="0 0 512 512" enable-background="new 0 0 512 512" xml:space="preserve">
<g id="Layer_2" display="none">
	<rect x="-71" y="-38" display="inline" fill="#333333" width="650" height="589"/>
</g>
<g id="Layer_1">
	<path fill="#FFFFFF" d="M510.451,256.144c0,140.617-113.986,254.603-254.596,254.603c-140.613,0-254.606-113.985-254.606-254.603
		C1.249,115.53,115.242,1.541,255.855,1.541C396.465,1.541,510.451,115.53,510.451,256.144z"/>
	<path fill="#4F4F4F" d="M365.685,208.263c0,60.659-49.178,109.83-109.83,109.83c-60.658,0-109.833-49.171-109.833-109.83
		c0-60.658,49.174-109.833,109.833-109.833C316.507,98.43,365.685,147.605,365.685,208.263z"/>
	<path fill="#4F4F4F" d="M255.855,510.746c51.349,0,99.108-15.257,139.098-41.401c-17.3-60.58-72.965-104.978-139.098-104.978
		c-66.137,0-121.797,44.397-139.105,104.978C156.744,495.489,204.506,510.746,255.855,510.746z"/>
</g>
</svg>
