<?xml version="1.0" encoding="utf-8"?>
<!-- Generator: Adobe Illustrator 16.0.0, SVG Export Plug-In . SVG Version: 6.00 Build 0)  -->
<!DOCTYPE svg PUBLIC "-//W3C//DTD SVG 1.1//EN" "http://www.w3.org/Graphics/SVG/1.1/DTD/svg11.dtd">
<svg version="1.1" xmlns="http://www.w3.org/2000/svg" xmlns:xlink="http://www.w3.org/1999/xlink" x="0px" y="0px" width="512px"
	 height="512px" viewBox="0 0 512 512" enable-background="new 0 0 512 512" xml:space="preserve">
<g id="Layer_2" display="none">
	<rect x="-71" y="-38" display="inline" fill="#333333" width="650" height="589"/>
</g>
<g id="Layer_1">
	<path fill="#FFFFFF" d="M510.451,256.144c0,140.617-113.986,254.603-254.596,254.603c-140.613,0-254.606-113.985-254.606-254.603
		C1.249,115.53,115.242,1.541,255.855,1.541C396.465,1.541,510.451,115.53,510.451,256.144z"/>
	<path fill="#4F4F4F" d="M443.417,256c0,103.507-83.903,187.417-187.411,187.417c-103.512,0-187.423-83.91-187.423-187.417
		c0-103.508,83.911-187.419,187.423-187.419C359.514,68.582,443.417,152.492,443.417,256z"/>
	<g>
		<g>
			<path fill="#FFFFFF" d="M258.661,65.876c50.401,0,91.263,83.911,91.263,187.419c0,103.508-40.861,187.418-91.263,187.418
				c-50.409,0-91.275-83.91-91.275-187.418C167.386,149.787,208.252,65.876,258.661,65.876 M258.661,43.106
				c-17.714,0-35.162,7.022-50.458,20.307c-13.196,11.46-24.821,27.404-34.553,47.387c-18.722,38.442-29.033,89.048-29.033,142.495
				s10.311,104.052,29.033,142.494c9.732,19.983,21.357,35.926,34.553,47.387c15.296,13.285,32.745,20.307,50.458,20.307
				c17.713,0,35.159-7.022,50.454-20.308c13.194-11.461,24.818-27.404,34.549-47.387c18.72-38.442,29.029-89.048,29.029-142.493
				c0-53.446-10.31-104.051-29.029-142.494c-9.73-19.983-21.354-35.926-34.549-47.387C293.82,50.129,276.374,43.106,258.661,43.106
				L258.661,43.106z"/>
		</g>
		<path fill="none" stroke="#FFFFFF" stroke-width="22.7695" stroke-miterlimit="10" d="M426.771,67.521
			c0,49.601-75.32,89.811-168.244,89.811c-92.916,0-168.24-40.21-168.24-89.811"/>
		<path fill="none" stroke="#FFFFFF" stroke-width="22.7695" stroke-miterlimit="10" d="M90.287,439.424
			c0-49.604,75.324-89.814,168.24-89.814c92.924,0,168.244,40.21,168.244,89.814"/>
		<line fill="none" stroke="#FFFFFF" stroke-width="23" stroke-miterlimit="10" x1="24" y1="256.5" x2="487" y2="256.5"/>
		<line fill="none" stroke="#FFFFFF" stroke-width="23" stroke-miterlimit="10" x1="255.5" y1="17" x2="255.5" y2="496"/>
	</g>
</g>
</svg>
