<?xml version="1.0" encoding="utf-8"?>
<!-- Generator: Adobe Illustrator 21.0.2, SVG Export Plug-In . SVG Version: 6.00 Build 0)  -->
<svg version="1.1" xmlns="http://www.w3.org/2000/svg" xmlns:xlink="http://www.w3.org/1999/xlink" x="0px"
	 y="0px" viewBox="0 0 329.2 66.9" style="enable-background:new 0 0 329.2 66.9;" xml:space="preserve">
<g>
	<g>
		<g>
			<path fill="#000000" d="M116.2,42.8c-2.3,0-4.5-0.9-6-2.4c-1.4-1.5-2.3-3.6-2.3-5.8V7.4h5.1v7.1h9.1v4.8h-9.1v15.3
				c0,0.8,0.2,1.6,0.7,2.2c0.6,0.7,1.5,1.2,2.4,1.2h6v4.8H116.2z"/>
			<path fill="#000000" d="M53.3,14.5V34c0,1.5,0.4,2.7,1.2,3.6c0.8,0.8,2,1.2,3.3,1.2c1.3,0,2.5-0.4,3.3-1.2c0.8-0.8,1.2-2.1,1.2-3.6
				V14.5h5.1V34c0,2.9-0.9,5.2-2.7,7c-1.8,1.8-4.2,2.7-7,2.7c-2.8,0-5.2-0.9-7.1-2.8c-1.9,1.9-4.3,2.8-7.1,2.8c-2.8,0-5.2-0.9-7-2.7
				c-1.8-1.8-2.7-4.1-2.7-7V14.5h5.1V34c0,1.5,0.4,2.7,1.2,3.6c0.8,0.8,2,1.2,3.3,1.2c1.3,0,2.5-0.4,3.3-1.2
				c0.9-0.8,1.2-2.1,1.2-3.6V14.5H53.3z"/>
			<path fill="#000000" d="M0.8,42.8V38h18.7c1,0,1.9-0.3,2.6-1c0.6-0.6,1.1-1.5,1.1-2.7c0-1.1-0.5-2-1.1-2.7c-0.7-0.7-1.6-1-2.6-1H8.5
				c-2.2,0-4.3-0.9-5.8-2.2C1.1,27,0,24.9,0,22.6c0-2.4,1-4.5,2.6-5.9c1.5-1.4,3.7-2.2,5.9-2.2h18.4v4.8H8.5c-1,0-1.8,0.3-2.4,0.9
				c-0.6,0.6-1,1.4-1,2.4c0,1,0.4,1.8,1,2.4c0.6,0.6,1.4,0.9,2.4,0.9h11.1c2.5,0,4.6,0.9,6.2,2.3c1.6,1.5,2.6,3.7,2.6,6.2
				c0,2.5-1,4.6-2.6,6.2c-1.5,1.5-3.7,2.3-6.2,2.3H0.8z"/>
			<path fill="#000000" d="M92.4,42.8c-1.5,0.6-3.1,0.9-4.8,0.9c-4,0-7.8-1.5-10.4-4.1c-2.7-2.7-4.1-6.4-4.1-10.4c0-4,1.5-7.8,4.1-10.4
				c2.7-2.7,6.1-4.2,10.4-4.2h12.5v28.3H95V19.3h-7.4c-2.8,0-5.2,1.1-6.9,2.9c-1.6,1.8-2.5,4.3-2.5,6.9c0,2.7,0.9,5.2,2.5,6.9
				c1.7,1.8,4.2,2.8,6.9,2.8c1.8,0,3.4-0.4,4.8-1.1V42.8z"/>
			<path fill="#000000" d="M131,28.6c0,2.8,1,5.3,2.8,7.1c1.8,1.9,4.4,3.1,7.1,3.1c1.9,0,3.6-0.5,5.1-1.4c1.5-0.9,2.7-2.3,3.6-3.9
				l4.4,2.5c-1.3,2.4-3.2,4.3-5.4,5.7c-2.2,1.3-4.9,1.9-7.6,1.9c-4.1,0-8-1.6-10.7-4.4c-2.7-2.7-4.3-6.5-4.3-10.7
				c0-4.1,1.6-7.9,4.3-10.7c2.7-2.7,6.6-4.4,10.7-4.4c2.7,0,5.4,0.6,7.6,1.9c2.3,1.4,4.1,3.3,5.4,5.7l-4.4,2.5c-0.9-1.6-2-3-3.6-3.9
				c-1.5-0.9-3.2-1.4-5.1-1.4c-2.8,0-5.3,1.1-7.1,3.1C132,23.3,131,25.9,131,28.6z"/>
			<path fill="#000000" d="M182.8,10c0-1.8,1.4-3.2,3.2-3.2s3.2,1.4,3.2,3.2c0,1.8-1.4,3.2-3.2,3.2S182.8,11.7,182.8,10L182.8,10z
				 M183.3,10c0,1.5,1.2,2.6,2.6,2.6c1.4,0,2.6-1.1,2.6-2.6c0-1.5-1.2-2.6-2.6-2.6C184.5,7.4,183.3,8.5,183.3,10L183.3,10z
				 M185.7,10.1h-0.5v1.5h-0.6V8.2h1.8c0.7,0,1,0.4,1,1c0,0.6-0.3,1-1,1l1,1.5h-0.7L185.7,10.1z M186.4,9.6c0.3,0,0.5-0.2,0.5-0.5
				c0-0.3-0.2-0.5-0.5-0.5h-1.2v0.9H186.4z"/>
			<path fill="#000000" d="M164.4,7.4V17c2.3-2.3,5.5-3.4,8.9-3.4c3.8,0,6.9,1.2,9.2,3.5c2.4,2.4,3.5,5.7,3.5,9.8v15.9h-5.1V26.9
				c0-2.5-0.5-4.5-1.8-6.1c-1.4-1.6-3.5-2.4-5.8-2.4c-2.6,0-4.8,0.9-6.3,2.3c-1.6,1.6-2.5,3.9-2.5,6.5v15.6h-5.1V7.4H164.4z"/>
		</g>
	</g>
	<g>
		<path fill="#FF0000" d="M324.1,42.8v-2.5c-2,2-4.9,3.4-8.3,3.4c-3.8,0-6.8-1.2-8.9-3.4c-2-2.2-3-5.5-3-9.8V14.8h5v15.7
			c0,2.6,0.4,4.7,1.6,6.2c1.1,1.4,3,2.2,5.4,2.2c5,0,8.1-3.4,8.1-9V14.8h5v28H324.1z"/>
		<path fill="#FF0000" d="M282.6,43.7c-8.1,0-14.9-6.4-14.9-14.9S274.5,14,282.6,14s14.9,6.4,14.9,14.9S290.8,43.7,282.6,43.7z
			 M282.6,38.9c5.3,0,9.8-4.5,9.8-10.1c0-5.6-4.5-10.1-9.8-10.1s-9.8,4.5-9.8,10.1C272.8,34.4,277.3,38.9,282.6,38.9z"/>
		<path fill="#FF0000" d="M251.1,36.2l8.5-21.4h5.4L249.3,54H244l4.5-11.2l-11.2-28h5.4L251.1,36.2z"/>
		<path fill="#FF0000" d="M234,5.6c-0.6-0.8-1.4-1.7-2.4-2.6c-0.9-0.9-1.9-1.7-2.9-2.3c-0.5-0.2-0.9-0.4-1.3-0.5C227,0,226.6,0,226.2,0
			c-0.8,0.1-1.6,0.6-2.3,1.6c-1.5,2-3.2,4.4-5,7.2c-1.8,2.8-3.8,5.9-6,9.2c-1-1.9-1.9-3.8-2.9-5.5c-0.9-1.8-1.8-3.4-2.5-5
			c-0.6-1.1-1.4-1.9-2.2-2.6c-0.8-0.6-1.9-1-3.3-1.1c-0.7,0-1.3,0-1.9,0.1c-0.6,0-1.2,0.1-1.8,0.1l-1.7,0.1c-0.3,0-0.6,0.1-0.9,0.1
			c-0.3,0-0.6,0.1-0.9,0.1c-1.1,0.3-1.8,0.6-2,1.1c-0.2,0.5,0,1.3,0.6,2.5c0.6,1.2,1.4,2.6,2.2,4.2c0.9,1.6,1.8,3.3,2.8,5.1
			c1,1.8,2.1,3.7,3.2,5.6c1.1,1.8,2.1,3.7,3.2,5.5c-6.4,8.3-11.4,17.5-15.3,27.4c-1.7,4.3,1,9.5,5.1,10.7c3.7,1.1,4.8-0.2,6.8-6.2
			c1.2-3.4,2.4-6.8,4-10c0.4-0.6,0.8-1.3,1.2-1.9c1.5-2.4,3.2-5,5.1-7.7c1.5,2.6,2.8,4.7,3.8,6.5c1.1,1.7,1.9,2.9,2.4,3.6
			c0.7,0.9,1.4,1.5,2.1,1.9s1.5,0.6,2.5,0.6c2.1,0,4.2-0.2,6.1-0.5c1.7-0.4,2.1-1.2,1-2.5c-1.4-2.5-2.9-5.4-4.6-8.7
			c-1.7-3.3-3.6-6.8-5.5-10.6c2.7-3.7,5.2-7.2,7.7-10.6c2.5-3.4,4.6-6.4,6.6-9.1c0.6-0.9,1-1.8,1.1-2.7C235.1,7.6,234.8,6.6,234,5.6
			z"/>
	</g>
</g>
</svg>
