<?xml version="1.0" encoding="utf-8"?>
<!-- Generator: Adobe Illustrator 23.0.6, SVG Export Plug-In . SVG Version: 6.00 Build 0)  -->
<svg version="1.1" id="레이어_1" xmlns="http://www.w3.org/2000/svg" xmlns:xlink="http://www.w3.org/1999/xlink" x="0px"
	 y="0px" viewBox="0 0 299 236" style="enable-background:new 0 0 299 236;" xml:space="preserve">
<style type="text/css">
	.st0{fill:#FFFFFF;}
	.st1{fill:#FFFFFF;stroke:#000000;stroke-miterlimit:10;}
	.st2{fill:#FFFFFF;stroke:#FFFFFF;stroke-miterlimit:10;}
</style>
<g>
	<path class="st0" d="M10.83,46.66c0,0-24.35,78.77,59.44,122.46c0,0,41.54,16.47,52.99,58.72c0,0,10.74,5.73,22.2-2.86
		c0,0-15.04-25.78-16.47-39.39c-1.43-13.61-1.43-37.95,7.16-53.71c0,0,0.53-7.38-3.58-1.43c-4.83,6.98-14.54,28.34-16.47,42.25
		c0,0-93.81-35.81-82.35-81.64c0,0,0.72-17.9,10.74-30.08s10.03-12.17,10.03-12.17l0,0c0,0-22.92,7.88-31.51,35.81
		c0,0-14.17-28.95,13.75-74.79c1.28-2.1,0.54-2.73,0.54-2.73S17.3,19.1,10.83,46.66z"/>
	<path class="st0" d="M288.17,46.66c0,0,24.35,78.77-59.44,122.46c0,0-41.54,16.47-52.99,58.72c0,0-10.74,5.73-22.2-2.86
		c0,0,15.04-25.78,16.47-39.39c1.43-13.61,1.43-37.95-7.16-53.71c0,0-0.53-7.38,3.58-1.43c4.83,6.98,14.54,28.34,16.47,42.25
		c0,0,93.81-35.81,82.35-81.64c0,0-0.72-17.9-10.74-30.08c-10.03-12.17-10.03-12.17-10.03-12.17l0,0c0,0,22.92,7.88,31.51,35.81
		c0,0,14.17-28.95-13.75-74.79c-1.28-2.1-0.54-2.73-0.54-2.73S281.7,19.1,288.17,46.66z"/>
	<path class="st1" d="M58.8,103.6"/>
	<path class="st2" d="M244.93,240.9"/>
</g>
<path d="M248,408.64c0,8.56-6.94,15.5-15.5,15.5s-15.5-6.94-15.5-15.5s15.5-32.77,15.5-32.77S248,400.08,248,408.64z"/>
<path d="M299,408.64c0,8.56-6.94,15.5-15.5,15.5s-15.5-6.94-15.5-15.5s15.5-32.77,15.5-32.77S299,400.08,299,408.64z"/>
<path d="M166,379c7,10.72,0,43.07,0,43.07c0,4.93,3.13,8.93,7,8.93s7-4,7-8.93c0,0-4.2-25.21,0-43.07C170.9,379,175.1,379,166,379z"
	/>
<path d="M124,385c5.5,8.4,0,33.76,0,33.76c0,3.87,2.46,7,5.5,7s5.5-3.13,5.5-7c0,0-6-7.76,0-33.76C127.85,385,131.15,385,124,385z"
	/>
<path d="M150.94,369c5.56,8.5,0,34.15,0,34.15c0,3.91,2.49,7.08,5.56,7.08s5.56-3.17,5.56-7.08c0,0-6.07-7.85,0-34.15
	C154.83,369,158.17,369,150.94,369z"/>
</svg>
