<?xml version="1.0" encoding="utf-8"?>
<!-- Generator: Adobe Illustrator 16.0.0, SVG Export Plug-In . SVG Version: 6.00 Build 0)  -->
<!DOCTYPE svg PUBLIC "-//W3C//DTD SVG 1.1//EN" "http://www.w3.org/Graphics/SVG/1.1/DTD/svg11.dtd">
<svg version="1.1" id="Layer_1" xmlns="http://www.w3.org/2000/svg" xmlns:xlink="http://www.w3.org/1999/xlink" x="0px" y="0px"
	 width="128px" height="128px" viewBox="0 0 128 128" enable-background="new 0 0 128 128" xml:space="preserve">
<g>
	<g>
		<path fill="#DBC8FF" d="M62.5,90.189c-5.247,0-9.5-4.253-9.5-9.5v-9.651c0-5.247,4.253-9.5,9.5-9.5
			c9.889,0,19.866-4.922,19.866-15.919c0-11.503-9.86-13.918-18.132-13.918c-4.358,0-18.578,1.093-18.578,15.162
			c0,5.247-4.253,9.5-9.5,9.5s-9.5-4.253-9.5-9.5c0-20.114,15.453-34.162,37.578-34.162c22.557,0,37.132,12.921,37.132,32.918
			c0,17.258-11.894,30.48-29.366,33.996v1.074C72,85.937,67.747,90.189,62.5,90.189z"/>
	</g>
	<circle fill="#DBC8FF" cx="61.906" cy="105.872" r="9.426"/>
</g>
</svg>
