<?xml version="1.0" encoding="utf-8"?>
<!-- Generator: Adobe Illustrator 16.0.0, SVG Export Plug-In . SVG Version: 6.00 Build 0)  -->
<!DOCTYPE svg PUBLIC "-//W3C//DTD SVG 1.1//EN" "http://www.w3.org/Graphics/SVG/1.1/DTD/svg11.dtd">
<svg version="1.1" id="Layer_1" xmlns="http://www.w3.org/2000/svg" xmlns:xlink="http://www.w3.org/1999/xlink" x="0px" y="0px"
	 width="377.667px" height="214.875px" viewBox="0 0 377.667 214.875" enable-background="new 0 0 377.667 214.875"
	 xml:space="preserve">
<path fill="#4F4F4F" d="M193.885,182.735c-41.603-41.604-41.593-109.029,0.012-150.633c41.593-41.594,109.019-41.603,150.622,0
	c41.595,41.596,41.595,109.031,0.001,150.625C302.916,224.33,235.481,224.33,193.885,182.735z"/>
<path fill="#17AF71" d="M182.639,32.097C141.034-9.507,73.608-9.497,32.018,32.093C-9.586,73.698-9.606,141.134,31.997,182.737
	c41.596,41.595,109.041,41.584,150.646-0.021C224.232,141.128,224.232,73.691,182.639,32.097z M145.915,145.99
	c-21.322,21.322-55.866,21.343-77.19,0.019c-21.313-21.312-21.302-55.866,0.021-77.188c21.304-21.302,55.857-21.313,77.17,0
	C167.237,90.143,167.217,124.687,145.915,145.99z"/>
<path fill="#1E1E1E" d="M188.26,38.311c-33.991,39.742-33.991,98.465,0.004,138.212C222.242,136.771,222.243,78.049,188.26,38.311z"
	/>
</svg>
