<?xml version="1.0" encoding="utf-8"?>
<!-- Generator: Adobe Illustrator 16.0.0, SVG Export Plug-In . SVG Version: 6.00 Build 0)  -->
<!DOCTYPE svg PUBLIC "-//W3C//DTD SVG 1.1//EN" "http://www.w3.org/Graphics/SVG/1.1/DTD/svg11.dtd">
<svg version="1.1" xmlns="http://www.w3.org/2000/svg" xmlns:xlink="http://www.w3.org/1999/xlink" x="0px" y="0px" width="64px"
	 height="64px" viewBox="0 0 64 64" enable-background="new 0 0 64 64" xml:space="preserve">
<g id="Layer_1" display="none">
	<g display="inline">
		<g>
			<path d="M45.25,46h-4.273c-2.181,3-5.723,5-9.727,5h-12c-6.617,0-12-5.508-12-12.125c0-4.504,2.497-8.494,6.176-10.546
				c-0.104-0.826-0.176-1.694-0.176-2.548c0-1.014,0.1-2.018,0.247-2.992C6.95,25.155,2.25,31.53,2.25,38.883
				C2.25,48.257,9.876,56,19.25,56h12c6.907,0,12.854-4.147,15.512-10.076C46.261,45.961,45.76,46,45.25,46z"/>
			<path d="M47.668,34.661C45.742,27.386,39.122,22,31.25,22H25.2c-0.602,1-0.95,2.562-0.95,4c0,0.338,0.022,0,0.059,1h6.941
				c5.213,0,9.647,3,11.3,8h2.7C46.089,35,46.896,34.876,47.668,34.661z"/>
		</g>
		<g>
			<path d="M45,42H33c-9.374,0-17-7.626-17-17S23.626,8,33,8h12c9.374,0,17,7.626,17,17S54.374,42,45,42z M33,13
				c-6.617,0-12,5.383-12,12s5.383,12,12,12h12c6.617,0,12-5.383,12-12s-5.383-12-12-12H33z"/>
		</g>
	</g>
</g>
<g id="Layer_2">
	<polyline fill="none" stroke="#FF0020" stroke-width="3" stroke-miterlimit="10" points="60.5,36 60.5,60.5 3.5,60.5 3.5,3.5 
		27,3.5 	"/>
	<polyline fill="none" stroke="#FF0020" stroke-width="3" stroke-miterlimit="10" points="35,3.5 60.5,3.5 60.5,29 	"/>
	<line fill="none" stroke="#FF0020" stroke-width="3" stroke-miterlimit="10" x1="18.563" y1="45.313" x2="59.938" y2="3.938"/>
</g>
</svg>
